<mxfile host="app.diagrams.net" modified="2023-06-25T05:51:42.627Z" agent="Mozilla/5.0 (Windows NT 10.0; Win64; x64) AppleWebKit/537.36 (KHTML, like Gecko) Chrome/114.0.0.0 Safari/537.36 Edg/114.0.1823.55" etag="BQg4wxJfp33CvrbG7zwg" version="21.5.0" type="github">
  <diagram name="Page-1" id="TSUFePBYDvLQ8Q8ea6Xs">
    <mxGraphModel dx="955" dy="430" grid="1" gridSize="10" guides="1" tooltips="1" connect="1" arrows="1" fold="1" page="1" pageScale="1" pageWidth="827" pageHeight="1169" math="0" shadow="0">
      <root>
        <mxCell id="0" />
        <mxCell id="1" parent="0" />
        <mxCell id="S29wc8W0qOuEWWspYlu0-1" value="Product" style="swimlane;whiteSpace=wrap;html=1;" parent="1" vertex="1">
          <mxGeometry x="150" y="130" width="240" height="220" as="geometry" />
        </mxCell>
        <mxCell id="S29wc8W0qOuEWWspYlu0-6" value="&lt;ul style=&quot;font-size: 19px;&quot;&gt;&lt;li&gt;title : String&lt;/li&gt;&lt;li&gt;description&amp;nbsp;: String&lt;/li&gt;&lt;li&gt;price : Number&lt;/li&gt;&lt;li&gt;images: String []&lt;/li&gt;&lt;li&gt;category: &lt;i&gt;id&lt;/i&gt;&lt;/li&gt;&lt;li&gt;properties: &amp;lt;K,V&amp;gt;&lt;/li&gt;&lt;/ul&gt;" style="text;html=1;align=left;verticalAlign=middle;resizable=0;points=[];autosize=1;strokeColor=none;fillColor=none;" parent="S29wc8W0qOuEWWspYlu0-1" vertex="1">
          <mxGeometry x="20" y="30" width="220" height="190" as="geometry" />
        </mxCell>
        <mxCell id="S29wc8W0qOuEWWspYlu0-2" value="Category" style="swimlane;whiteSpace=wrap;html=1;" parent="1" vertex="1">
          <mxGeometry x="480" y="140" width="200" height="200" as="geometry" />
        </mxCell>
        <mxCell id="S29wc8W0qOuEWWspYlu0-5" value="&lt;ul style=&quot;font-size: 19px;&quot;&gt;&lt;li&gt;name&lt;/li&gt;&lt;li&gt;parent Category&lt;/li&gt;&lt;li&gt;properties&lt;/li&gt;&lt;/ul&gt;" style="text;html=1;align=left;verticalAlign=middle;resizable=0;points=[];autosize=1;strokeColor=none;fillColor=none;" parent="S29wc8W0qOuEWWspYlu0-2" vertex="1">
          <mxGeometry y="20" width="200" height="120" as="geometry" />
        </mxCell>
        <mxCell id="S29wc8W0qOuEWWspYlu0-3" value="Cart" style="swimlane;whiteSpace=wrap;html=1;" parent="1" vertex="1">
          <mxGeometry x="627" y="330" width="200" height="220" as="geometry" />
        </mxCell>
        <mxCell id="S29wc8W0qOuEWWspYlu0-8" value="&lt;ul style=&quot;font-size: 19px;&quot;&gt;&lt;li&gt;Name&lt;br&gt;&lt;/li&gt;&lt;li&gt;Email&lt;/li&gt;&lt;li&gt;City&lt;/li&gt;&lt;li&gt;PostalCode&lt;/li&gt;&lt;li&gt;StreetAddress&lt;/li&gt;&lt;li&gt;Country&lt;/li&gt;&lt;li&gt;CartProducts&lt;/li&gt;&lt;/ul&gt;" style="text;html=1;align=left;verticalAlign=middle;resizable=0;points=[];autosize=1;strokeColor=none;fillColor=none;" parent="S29wc8W0qOuEWWspYlu0-3" vertex="1">
          <mxGeometry x="20" y="10" width="180" height="210" as="geometry" />
        </mxCell>
        <mxCell id="S29wc8W0qOuEWWspYlu0-24" value="Properties" style="swimlane;whiteSpace=wrap;html=1;" parent="1" vertex="1">
          <mxGeometry x="110" y="410" width="200" height="200" as="geometry" />
        </mxCell>
        <mxCell id="S29wc8W0qOuEWWspYlu0-25" value="&lt;ul style=&quot;font-size: 19px;&quot;&gt;&lt;li&gt;name&lt;/li&gt;&lt;li&gt;value&lt;/li&gt;&lt;/ul&gt;" style="text;html=1;align=left;verticalAlign=middle;resizable=0;points=[];autosize=1;strokeColor=none;fillColor=none;" parent="S29wc8W0qOuEWWspYlu0-24" vertex="1">
          <mxGeometry y="30" width="110" height="100" as="geometry" />
        </mxCell>
      </root>
    </mxGraphModel>
  </diagram>
</mxfile>
